<?xml version="1.0" standalone="no"?><!DOCTYPE svg PUBLIC "-//W3C//DTD SVG 1.1//EN"
        "http://www.w3.org/Graphics/SVG/1.1/DTD/svg11.dtd">
<svg t="1709091107405" class="icon" viewBox="0 0 1024 1024" version="1.1" xmlns="http://www.w3.org/2000/svg" p-id="1465"
     width="200" height="200">
    <path d="M875.542016 433.152a139.0336 139.0336 0 0 0-87.04 30.72l-40.96-40.96a142.9504 142.9504 0 0 0 30.72-92.16 148.48 148.48 0 0 0-148.48-148.48 157.4912 157.4912 0 0 0-153.6 153.6 152.7808 152.7808 0 0 0 76.8 133.12l-61.44 87.04a141.7216 141.7216 0 0 0-66.56-15.36 166.656 166.656 0 0 0-71.68 20.48l-66.56-87.04a254.0032 254.0032 0 0 0 15.36-66.56 148.48 148.48 0 0 0-148.48-148.48 151.04 151.04 0 0 0-5.12 302.08 165.248 165.248 0 0 0 107.52-40.96l56.32 71.68a161.6384 161.6384 0 0 0-35.84 97.28 148.48 148.48 0 0 0 296.96 0 142.9504 142.9504 0 0 0-40.96-102.4l71.68-97.28h20.48a154.7264 154.7264 0 0 0 81.92-25.6l46.08 40.96a158.72 158.72 0 0 0-25.6 87.04 148.48 148.48 0 1 0 296.96 0c0-81.92-66.56-158.72-148.48-158.72z m-727.04 76.8a102.4 102.4 0 1 1 102.4-102.4 102.7072 102.7072 0 0 1-102.4 102.4z m276.48 276.48a102.4 102.4 0 1 1 102.4-102.4 102.7072 102.7072 0 0 1-102.4 102.4z m97.28-450.56a102.4 102.4 0 1 1 102.4 102.4 102.7072 102.7072 0 0 1-102.4-102.4z m353.28 348.16a102.4 102.4 0 1 1 102.4-102.4 106.1888 106.1888 0 0 1-102.4 102.4z"
          fill="#188CFF" p-id="1466"></path>
</svg>